<svg xmlns="http://www.w3.org/2000/svg"  viewBox="0 0 48 48" width="192px" height="192px" fill-rule="evenodd" clip-rule="evenodd" baseProfile="basic"><path fill-rule="evenodd" d="M10,36v2h28v-2H10z" clip-rule="evenodd"/><path fill-rule="evenodd" d="M3,20.3v2h42v-2H3z" clip-rule="evenodd"/><path fill-rule="evenodd" d="M20,43h-5c-2.8,0-5-2.2-5-5	c0-0.5,0.4-1,1-1c-4.8-3.4-8-8.6-8-14.5C3,12.2,12.5,4,24,4s21,8.2,21,18.5c0,5.9-3.1,11.1-8,14.5c0.5,0,1,0.5,1,1c0,2.8-2.2,5-5,5	h-5c0,2.2-1.8,4-4,4S20,45.2,20,43z" clip-rule="evenodd"/><path fill="#fff" fill-rule="evenodd" d="M24,3	C13,3,4,10.8,4,20.5S13,38,24,38s20-7.8,20-17.5S35,3,24,3z" clip-rule="evenodd"/><path fill="#fff" fill-rule="evenodd" d="M30.7,10.6	c4.6,1.7,9.3,4.2,9.3,8.4c0,1.2-1.8,2-3,2H24c-2.7,0.9-5.3,2-8,2c-4.2,0-8-1.3-8-5c0-2,2-4,5-4c1.3-1.3,2.8-2.4,4.5-3.3	C19.1,9.9,26.8,10.3,30.7,10.6z" clip-rule="evenodd"/><path fill-rule="evenodd" d="M3,20.5C3,10.2,12.5,2,24,2	s21,8.2,21,18.5S35.5,39,24,39S3,30.8,3,20.5z M43,20.5C43,11.5,34.6,4,24,4S5,11.5,5,20.5S13.4,37,24,37S43,29.5,43,20.5z" clip-rule="evenodd"/><path fill-rule="evenodd" d="M10,22.8c-1.8-0.9-3-2.5-3-4.8	c0-2.5,2.3-4.7,5.4-5h0.2l0.8-0.7c1.1-0.9,2.3-1.8,3.6-2.5c0.6-0.3,1.7-0.5,2.6-0.5c1.1-0.1,2.3-0.1,3.7-0.1c2.7,0,5.6,0.2,7.5,0.3	c0.1,0,0.2,0,0.3,0.1c2.3,0.8,4.8,1.9,6.6,3.4c1.9,1.5,3.3,3.4,3.3,5.9c0,2-2.6,3-4,3H24.2l-1.8,0.7c-2,0.7-4.1,1.3-6.3,1.3	C13.8,24,11.6,23.7,10,22.8z M23.7,20.1c0.1,0,0.2-0.1,0.3-0.1h13c1.1,0,2-0.7,2-1c0-1.7-0.9-3.1-2.5-4.4c-1.2-0.9-2.8-1.8-4.4-2.4	l-1.5-0.6H30c-1.9-0.1-4.4-0.3-6.7-0.3c-1.3,0-2.5,0-3.5,0.1c-1.1,0.1-1.6,0.2-1.8,0.3c-1.5,0.8-3,1.9-4.2,3.1	c-0.2,0.2-0.4,0.3-0.7,0.3c-2.6,0-4,1.7-4,3c0,1.4,0.7,2.4,1.9,3c1.3,0.7,3.1,1,5.1,1C18.5,22,20.9,21,23.7,20.1z" clip-rule="evenodd"/><path fill-rule="evenodd" d="M23,21v-3c0-0.5,0.4-1,1-1s1,0.5,1,1	v3c0,0.5-0.4,1-1,1S23,21.5,23,21z" clip-rule="evenodd"/><path fill="#fff" fill-rule="evenodd" d="M20.5,4	C18.6,4,17,6,17,8.5s1.6,4.5,3.5,4.5S24,11,24,8.5S22.4,4,20.5,4z" clip-rule="evenodd"/><path fill="#fff" fill-rule="evenodd" d="M27.5,5	C25.6,5,24,6.8,24,9s1.6,4,3.5,4S31,11.2,31,9S29.4,5,27.5,5z" clip-rule="evenodd"/><path fill-rule="evenodd" d="M16,8.5C16,5.6,17.9,3,20.5,3	S25,5.6,25,8.5c0,3-1.9,5.5-4.5,5.5S16,11.4,16,8.5z M23,8.5c0-2-1.2-3.5-2.5-3.5S18,6.5,18,8.5c0,2.1,1.2,3.5,2.5,3.5	S23,10.5,23,8.5z" clip-rule="evenodd"/><path fill-rule="evenodd" d="M23,9c0-2.7,1.9-5,4.5-5S32,6.3,32,9	s-1.9,5-4.5,5S23,11.7,23,9z M30,9c0-1.8-1.2-3-2.5-3S25,7.3,25,9c0,1.8,1.2,3,2.5,3S30,10.7,30,9z" clip-rule="evenodd"/><path fill="#fff" fill-rule="evenodd" d="M24,11c-1.7,0-3,1.3-3,3	s1.3,3,3,3s3-1.3,3-3S25.7,11,24,11z" clip-rule="evenodd"/><path fill-rule="evenodd" d="M20,14c0-2.2,1.8-4,4-4s4,1.8,4,4	s-1.8,4-4,4S20,16.2,20,14z M26,14c0-1.1-0.9-2-2-2s-2,0.9-2,2s0.9,2,2,2S26,15.1,26,14z" clip-rule="evenodd"/><path fill-rule="evenodd" d="M21,7c-0.6,0-1,0.5-1,1s0.4,1,1,1	s1-0.5,1-1S21.6,7,21,7z" clip-rule="evenodd"/><path fill-rule="evenodd" d="M27,7c-0.6,0-1,0.5-1,1s0.4,1,1,1	s1-0.5,1-1S27.6,7,27,7z" clip-rule="evenodd"/><path fill-rule="evenodd" d="M10,17c0-0.5,0.4-1,1-1h7	c0.6,0,1,0.5,1,1s-0.4,1-1,1h-7C10.5,18,10,17.5,10,17z" clip-rule="evenodd"/><path fill-rule="evenodd" d="M10.1,21.4c-0.2-0.5,0-1.1,0.5-1.3	l7-2.9c0.5-0.2,1.1,0,1.3,0.5c0.2,0.5,0,1.1-0.5,1.3l-7,2.9C10.9,22.1,10.3,21.9,10.1,21.4z" clip-rule="evenodd"/><path fill-rule="evenodd" d="M17.6,16.9l-7-2.9	c-0.5-0.2-0.7-0.8-0.5-1.3s0.8-0.8,1.3-0.5l7,2.9c0.5,0.2,0.7,0.8,0.5,1.3C18.7,16.8,18.1,17.1,17.6,16.9z" clip-rule="evenodd"/><path fill-rule="evenodd" d="M30,16c0-0.5,0.4-1,1-1h7	c0.6,0,1,0.5,1,1s-0.4,1-1,1h-7C30.4,17,30,16.5,30,16z" clip-rule="evenodd"/><path fill-rule="evenodd" d="M37.6,20.9l-7-2.9	c-0.5-0.2-0.7-0.8-0.5-1.3s0.8-0.7,1.3-0.5l7,2.9c0.5,0.2,0.7,0.8,0.5,1.3C38.7,20.9,38.1,21.1,37.6,20.9z" clip-rule="evenodd"/><path fill-rule="evenodd" d="M30.1,15.3c-0.2-0.5,0-1.1,0.5-1.3	l7-2.9c0.5-0.2,1.1,0,1.3,0.5c0.2,0.5,0,1.1-0.5,1.3l-7,2.9C30.9,16.1,30.3,15.8,30.1,15.3z" clip-rule="evenodd"/><path fill-rule="evenodd" d="M8,20.9c0-0.6,0.4-1,1-1s1,0.4,1,0.9	C10.4,29.4,16.6,36,24,36c7.5,0,13.8-6.8,14-15.6c0-0.5,0.5-1,1-1c0.6,0,1,0.5,1,1C39.8,30,32.8,38,24,38C15.3,38,8.4,30.3,8,20.9z" clip-rule="evenodd"/><path fill="#fff" fill-rule="evenodd" d="M37,36H11	c0,2.2,1.8,4,4,4h18C35.2,40,37,38.2,37,36z" clip-rule="evenodd"/><path fill-rule="evenodd" d="M10,36c0-0.5,0.4-1,1-1h26	c0.6,0,1,0.5,1,1c0,2.8-2.2,5-5,5H15C12.2,41,10,38.8,10,36z M35.8,37H12.1l0.1,0.2c0.5,1.1,1.5,1.8,2.8,1.8h18	c1.2,0,2.3-0.8,2.8-1.8L35.8,37z" clip-rule="evenodd"/><path fill="#fff" fill-rule="evenodd" d="M24,38c-1.7,0-3,1.3-3,3	s1.3,3,3,3s3-1.3,3-3S25.7,38,24,38z" clip-rule="evenodd"/><path fill-rule="evenodd" d="M20,41c0-2.2,1.8-4,4-4s4,1.8,4,4	s-1.8,4-4,4S20,43.2,20,41z M26,41c0-1.1-0.9-2-2-2s-2,0.9-2,2s0.9,2,2,2S26,42.1,26,41z" clip-rule="evenodd"/><path fill-rule="evenodd" d="M30.8,29.1C30.3,27.9,29,27,28,27	c-1.5,0-3.3,0.8-4,2c-0.2-1.5-1.6-3-3-3c-1.7,0-3.2,1.6-4,3c0,0.1-0.1,0.1-0.1,0.2c-1.8-1.6-3-3.8-3.6-6.4l0,0	c0.9,0.1,1.8,0.2,2.7,0.2c2.7,0,5.3-1.1,8-2h11c-0.3,3.3-1.8,6.3-4,8.3C30.9,29.2,30.9,29.2,30.8,29.1z" clip-rule="evenodd"/><path fill="#fff" fill-rule="evenodd" d="M29.9,29.5	c-0.2-0.4-0.5-0.8-0.9-1.1S28.2,28,28,28c-1.2,0-2.7,0.7-3.1,1.5c-0.5,0.8-1.7,0.5-1.8-0.4c-0.2-1.1-1.2-2.1-2-2.1	c-1.1,0-2.3,1.2-3.1,2.5c-0.3,0.5-0.9,0.6-1.4,0.4c-0.5-0.3-0.6-0.9-0.4-1.4c0.5-0.8,1.1-1.6,1.9-2.3s1.8-1.2,3-1.2	c1.4,0,2.6,0.9,3.3,2.1v0.1l0.2-0.2c1-0.7,2.3-1,3.4-1c1.5,0,3.1,1.2,3.8,2.7c0.2,0.5,0,1.1-0.6,1.3C30.7,30.2,30.1,30,29.9,29.5z" clip-rule="evenodd"/><path fill-rule="evenodd" d="M12.3,23c-0.1-0.5,0.2-1.1,0.8-1.2	c0.5-0.1,1.1,0.2,1.2,0.8c1.1,4.9,5.1,8.4,9.7,8.4c5.2,0,9.5-4.4,10-10.1c0-0.5,0.5-1,1.1-0.9c0.6,0,1,0.5,0.9,1.1	C35.5,27.7,30.4,33,24,33C18.3,33,13.6,28.7,12.3,23z" clip-rule="evenodd"/></svg>