<svg xmlns="http://www.w3.org/2000/svg"  viewBox="0 0 50 50" width="50px" height="50px"><path d="M 25 2 C 11.552308 2 3 11.234797 3 22.5 C 3 29.317797 6.5869179 35.34636 12.058594 39.066406 L 12 40 L 11.029297 38.757812 C 10.355355 41.453581 12.268561 44.154332 15.037109 44.40625 C 16.552012 44.544118 18.321572 44.683203 20.070312 44.796875 C 20.455744 47.170398 22.522153 49 25 49 C 27.477183 49 29.543456 47.171423 29.929688 44.798828 C 31.671337 44.685469 33.453991 44.544165 34.962891 44.40625 C 37.731439 44.154332 39.644645 41.453581 38.970703 38.757812 L 38 40 L 37.941406 39.066406 C 43.41319 35.346925 47 29.317797 47 22.5 C 47 11.234797 38.447692 2 25 2 z M 25 4 C 25.972352 4 26.902499 4.0662665 27.8125 4.1621094 C 26.794806 4.4346744 25.92241 5.0573676 25.261719 5.8867188 C 24.898318 5.165631 24.421666 4.5323424 23.837891 4.0488281 C 24.225183 4.0325183 24.60239 4 25 4 z M 31.732422 4.8984375 C 40.165876 7.2903474 45 14.227116 45 22.5 C 45 29.129887 41.234373 34.943837 35.537109 38.21875 C 39.476109 35.009231 42 30.05474 42 24.5 C 42 24.119182 41.974258 23.745515 41.951172 23.371094 C 42.586395 22.789546 43 21.945053 43 21 C 43 18.230616 41.663559 15.727161 39.480469 13.730469 L 40.175781 13.46875 L 39.824219 12.53125 L 38.603516 12.988281 C 37.262809 11.945564 35.678767 11.070202 33.923828 10.412109 C 33.969787 10.113869 34 9.8100676 34 9.5 C 34 7.6069269 33.108665 5.8930314 31.732422 4.8984375 z M 21 5 C 22.533279 5 24 6.671452 24 9 C 24 9.8844301 23.771981 10.684465 23.416016 11.333984 C 22.66538 11.661381 22.040768 12.216487 21.611328 12.90625 C 21.412799 12.962107 21.21044 13 21 13 C 19.466721 13 18 11.328548 18 9 C 18 6.671452 19.466721 5 21 5 z M 17.103516 5.2753906 C 16.416764 6.3177674 16 7.614132 16 9 C 16 9.7955577 16.1313 10.56722 16.373047 11.277344 C 14.940254 12.044336 13.666337 12.98019 12.576172 14.052734 C 11.095674 14.115404 9.7618002 14.451676 8.7558594 15.228516 C 7.6493989 16.082982 7 17.441703 7 19 C 7 20.352185 7.4054884 21.562648 8.1074219 22.570312 C 8.040313 23.204165 8 23.846961 8 24.5 C 8 30.054101 10.524743 35.008929 14.462891 38.21875 C 8.7654608 34.942867 5 29.129887 5 22.5 C 5 14.618065 9.3958388 7.9573244 17.103516 5.2753906 z M 29 6 C 30.600882 6 32 7.4954829 32 9.5 C 32 11.504517 30.600882 13 29 13 C 28.799411 13 28.606625 12.969436 28.417969 12.925781 C 27.957951 12.16921 27.256136 11.577493 26.416016 11.259766 C 26.157361 10.745355 26 10.148829 26 9.5 C 26 7.4954829 27.399118 6 29 6 z M 22 8 A 1 1 0 0 0 21 9 A 1 1 0 0 0 22 10 A 1 1 0 0 0 23 9 A 1 1 0 0 0 22 8 z M 28 8 A 1 1 0 0 0 27 9 A 1 1 0 0 0 28 10 A 1 1 0 0 0 29 9 A 1 1 0 0 0 28 8 z M 33.277344 12.304688 C 34.403313 12.730578 35.424321 13.251487 36.337891 13.837891 L 31.824219 15.53125 L 32.175781 16.46875 L 37.333984 14.535156 C 38.295379 15.279917 39.088525 16.110615 39.689453 17 L 32 17 L 32 18 L 40.269531 18 C 40.74088 18.961498 41 19.971166 41 21 C 41 21.699542 40.875303 21.834641 40.316406 22.091797 C 39.75751 22.348953 38.683333 22.5 37.283203 22.5 C 34.505363 22.5 30.478939 22.009832 26 22.001953 L 26 18.855469 C 27.715801 18.4056 29 16.850335 29 15 C 30.850882 15 32.413229 13.896228 33.277344 12.304688 z M 25 13 C 25.169989 13 25.33226 13.021697 25.486328 13.060547 L 25.488281 13.060547 C 26.083778 13.209255 26.577864 13.629149 26.826172 14.179688 C 26.938099 14.428146 27 14.703749 27 15 C 27 16.116666 26.116666 17 25 17 C 23.883334 17 23 16.116666 23 15 C 23 13.883334 23.883334 13 25 13 z M 17.3125 13.039062 C 18.207596 14.224824 19.493846 15 21 15 C 21 16.850335 22.284199 18.4056 24 18.855469 L 24 22.181641 C 22.839302 22.384406 21.803412 22.726053 20.869141 23.058594 C 19.454221 23.562213 18.247967 24 16.947266 24 C 14.391619 24 12.333969 23.492611 11.001953 22.634766 C 9.6699371 21.77692 9 20.663169 9 19 L 19 19 L 19 18 L 9.1523438 18 C 9.3074851 17.506143 9.576946 17.122613 9.9785156 16.8125 C 10.543261 16.376375 11.427841 16.090528 12.5625 16.027344 L 18.886719 17.486328 L 19.113281 16.513672 L 14.080078 15.351562 C 15.003193 14.469659 16.087489 13.688201 17.3125 13.039062 z M 32.136719 18.519531 L 31.863281 19.480469 L 38.863281 21.480469 L 39.136719 20.519531 L 32.136719 18.519531 z M 18.878906 19.515625 L 10.878906 21.515625 L 11.121094 22.484375 L 19.121094 20.484375 L 18.878906 19.515625 z M 25.894531 24 C 29.672011 24 33.120222 24.35546 35.953125 24.457031 C 35.722996 27.372976 34.462704 29.966911 32.552734 31.853516 C 32.367871 31.479254 32.129817 31.138014 31.808594 30.863281 C 31.08186 30.241728 30.106129 30 29 30 C 28.098246 30 27.154744 30.233621 26.291016 30.628906 C 25.893073 30.811025 25.645673 31.186077 25.298828 31.445312 C 25.070397 31.024066 24.945388 30.547735 24.611328 30.201172 C 23.952659 29.51785 23.04673 29 22 29 C 19.884152 29 17.834011 30.362978 17.203125 32.359375 C 17.192628 32.350335 17.180374 32.343067 17.169922 32.333984 C 15.372632 30.772258 14.22241 28.590244 14.039062 25.783203 C 14.94921 25.928346 15.920709 26 16.947266 26 C 18.686564 26 20.144482 25.437787 21.539062 24.941406 C 22.933643 24.445026 24.270897 24 25.894531 24 z M 39.990234 24.271484 C 39.991283 24.348291 40 24.422914 40 24.5 C 40 30.855466 36.302271 36.28985 31.041016 38.685547 C 28.956203 38.855206 26.789597 39 25 39 C 23.210966 39 21.045176 38.85513 18.960938 38.685547 C 13.69936 36.289665 10 30.855625 10 24.5 C 10 24.454737 10.003528 24.410403 10.003906 24.365234 C 10.608579 24.744407 11.283431 25.049741 12.015625 25.292969 C 12.092651 28.870369 13.542815 31.830811 15.859375 33.84375 C 18.239986 35.912345 21.480474 37 25 37 C 31.867614 37 37.464039 31.452052 37.953125 24.486328 C 38.69067 24.467321 39.369211 24.40495 39.990234 24.271484 z M 22 31 C 22.39027 31 22.786591 31.190212 23.169922 31.587891 C 23.553253 31.985569 23.87802 32.577118 24.033203 33.164062 A 1.0001 1.0001 0 0 0 25.861328 33.416016 C 26.024442 33.138498 26.508025 32.72873 27.123047 32.447266 C 27.738069 32.165801 28.469754 32 29 32 C 29.819871 32 30.262047 32.172616 30.507812 32.382812 C 30.697578 32.545113 30.842322 32.778767 30.925781 33.183594 C 29.213047 34.329471 27.182523 35 25 35 C 22.764663 35 20.716077 34.495841 19.007812 33.582031 C 19.049151 32.258044 20.562608 31 22 31 z M 13.132812 40.128906 C 14.362601 40.276558 17.709412 40.660808 21.140625 40.865234 C 20.684083 41.425593 20.342623 42.07802 20.162109 42.798828 C 18.45022 42.687716 16.711911 42.551904 15.21875 42.416016 C 13.967843 42.302192 13.273171 41.284326 13.132812 40.128906 z M 36.867188 40.128906 C 36.726829 41.284326 36.032157 42.302192 34.78125 42.416016 C 33.295942 42.551774 31.542801 42.687597 29.837891 42.798828 C 29.657377 42.07802 29.315917 41.425593 28.859375 40.865234 C 32.290589 40.660808 35.6374 40.276558 36.867188 40.128906 z M 25 41 C 26.668699 41 28 42.331301 28 44 C 28 45.668699 26.668699 47 25 47 C 23.331301 47 22 45.668699 22 44 C 22 42.331301 23.331301 41 25 41 z"/></svg>